<svg xmlns="http://www.w3.org/2000/svg" xmlns:xlink="http://www.w3.org/1999/xlink" viewBox="0 0 320 336"><defs><linearGradient id="b" x1="263.7" x2="263.7" y1="294" y2="25.4" gradientUnits="userSpaceOnUse"><stop offset="0" stop-color="#9fa3a2"/><stop offset="1" stop-color="#bfc1c2"/></linearGradient><linearGradient id="a" x1="56.3" x2="56.3" y1="294" y2="25.4" gradientUnits="userSpaceOnUse"><stop offset="0" stop-color="#00592b"/><stop offset="1" stop-color="#027536"/></linearGradient><linearGradient xlink:href="#a" id="c" x1="77.5" x2="77.5" y1="320.4" y2="176"/><linearGradient id="d" x1="104.5" x2="104.5" y1="330.4" y2="176" gradientUnits="userSpaceOnUse"><stop offset="0" stop-color="#003224"/><stop offset="1" stop-color="#036a3e"/></linearGradient><linearGradient id="e" x1="242.5" x2="242.5" y1="320.4" y2="176" gradientUnits="userSpaceOnUse"><stop offset="0" stop-color="#011e2d"/><stop offset="1" stop-color="#012d40"/></linearGradient><linearGradient id="f" x1="215.5" x2="215.5" y1="330.4" y2="176" gradientUnits="userSpaceOnUse"><stop offset="0" stop-color="#032a41"/><stop offset="1" stop-color="#0a4963"/></linearGradient><linearGradient id="g" x1="124" x2="124" y1="336" y2="0" gradientUnits="userSpaceOnUse"><stop offset="0" stop-color="#408a11"/><stop offset="1" stop-color="#a8ef05"/></linearGradient><linearGradient id="h" x1="196" x2="196" y1="336" y2="0" gradientUnits="userSpaceOnUse"><stop offset="0" stop-color="#08461c"/><stop offset="1" stop-color="#62a304"/></linearGradient></defs><path d="m214.2 25.4-6.8 18.8A140 140 0 0 1 268 265.1v29a160 160 0 0 0-53.8-268.6Z" style="fill:url(#b);stroke-width:0"/><path d="M52 265a140 140 0 0 1 60.6-220.8l-6.8-18.8A160 160 0 0 0 52 294v-29Z" style="fill:url(#a);stroke-width:0"/><path d="M64 176v128c8.4 6.3 17.4 11.8 27 16.4V176H64Z" style="stroke-width:0;fill:url(#c)"/><path d="M91 176v144.4c8.6 4.1 17.6 7.5 27 10V176H91Z" style="fill:url(#d);stroke-width:0"/><path d="M256 176h-27v144.4c9.6-4.6 18.6-10 27-16.4V176Z" style="fill:url(#e);stroke-width:0"/><path d="M202 176v154.4c9.4-2.5 18.4-5.9 27-10V176h-27Z" style="fill:url(#f);stroke-width:0"/><path d="M88 108h45v225.7c8.8 1.5 17.8 2.3 27 2.3V0L88 108Z" style="fill:url(#g);stroke-width:0"/><path d="M187 108h45L160 0v336c9.2 0 18.2-.8 27-2.3V108Z" style="fill:url(#h);stroke-width:0"/></svg>